PathFileType	4	(X/Y/Z)	./resultDataOpenSim/trcMotMarkerGrf/sub10/qtm-03-02.trc
DataRate	CameraRate	NumFrames	NumMarkers	Units	OrigDataRate	OrigDataStartFrame	OrigNumFrames
250.000000	250.000000	12	24	m	250.000000	181	481
Frame#	Time	L.Toe.Tip			R.Toe.Tip			L.Ankle.Lat			R.Ankle.Lat			L.Ankle.Med			R.Ankle.Med			L.Heel			R.Heel			L.Knee.Lat			R.Knee.Lat			L.Knee.Med			R.Knee.Med			L.Thigh.Upper			R.Thigh.Upper			L.ASIS			R.ASIS			V.Sacral			L.Acromium			R.Acromium			C7			L.Elbow			R.Elbow			L.Wrist.Lat			R.Wrist.Lat
		X1	Y1	Z1	X2	Y2	Z2	X3	Y3	Z3	X4	Y4	Z4	X5	Y5	Z5	X6	Y6	Z6	X7	Y7	Z7	X8	Y8	Z8	X9	Y9	Z9	X10	Y10	Z10	X11	Y11	Z11	X12	Y12	Z12	X13	Y13	Z13	X14	Y14	Z14	X15	Y15	Z15	X16	Y16	Z16	X17	Y17	Z17	X18	Y18	Z18	X19	Y19	Z19	X20	Y20	Z20	X21	Y21	Z21	X22	Y22	Z22	X23	Y23	Z23	X24	Y24	Z24

181	0.72	-0.015489919	-0.0072751622	-0.062496083	-0.76152864	0.039478231	0.078821949	-0.1571313	0.014790146	-0.092973719	-0.86677439	0.13040031	0.10412133	-0.15057438	0.040212231	-0.012239808	-0.82921871	0.13259378	0.02230527	-0.21655177	-0.013939952	-0.045834713	-0.91785702	0.13375287	0.050869326	-0.18381135	0.40100087	-0.13161908	-0.57109953	0.39964526	0.12847671	-0.16959817	0.38324872	-0.010795219	-0.53728544	0.38510554	0.0045071167	-0.29173419	0.7713365	-0.19001437	-0.4450122	0.78003304	0.17248779	-0.26852941	0.87600676	-0.10203996	-0.339312	0.86127677	0.13587294	-0.49308345	0.87957309	-0.05154751	-0.36816213	1.3326489	-0.16771157	-0.42454387	1.3381369	0.15406937	-0.48217041	1.3604922	-0.027650702	-0.50167084	1.0188552	-0.23006303	-0.44747405	0.98003314	0.21202313	-0.42374498	0.79027411	-0.24007381	-0.22255979	0.87409363	0.23820336
182	0.724	-0.015024382	-0.0074095864	-0.062251185	-0.76056908	0.039349329	0.078577759	-0.15624112	0.015189059	-0.092376299	-0.86146671	0.13482386	0.10413432	-0.14976232	0.040027345	-0.011388468	-0.82341074	0.13533005	0.022962034	-0.21614715	-0.013709574	-0.044999332	-0.91164668	0.13965058	0.04992009	-0.17761481	0.40115984	-0.13112768	-0.56176806	0.39860832	0.12865034	-0.16534067	0.38302792	-0.010096328	-0.52810513	0.38344622	0.0049659985	-0.28488419	0.77212777	-0.19124289	-0.43683777	0.77852136	0.17213072	-0.2618752	0.87595178	-0.10296542	-0.33122886	0.86025198	0.13453573	-0.48629164	0.87935474	-0.051845888	-0.36174875	1.3321177	-0.16877518	-0.4180224	1.3379413	0.15324383	-0.47569734	1.359937	-0.028665734	-0.49451702	1.0180837	-0.23019585	-0.44276268	0.97974	0.21045976	-0.41731282	0.78921862	-0.24115663	-0.21840491	0.87309872	0.2385927
183	0.728	-0.014655482	-0.0075019124	-0.062073302	-0.75952096	0.039211567	0.07833625	-0.15542852	0.015681612	-0.091958726	-0.85567146	0.13927428	0.10406686	-0.14902669	0.040051901	-0.010746787	-0.81691554	0.13791654	0.023661507	-0.21568109	-0.013397338	-0.044164897	-0.90473613	0.14564051	0.049012607	-0.17122396	0.40150824	-0.13064854	-0.55205352	0.39754341	0.12889176	-0.16105667	0.38309383	-0.009435655	-0.51844739	0.38161823	0.0055666973	-0.27814535	0.77316223	-0.19248408	-0.42861599	0.77700998	0.17176447	-0.25536056	0.87597925	-0.10395229	-0.32319641	0.85928883	0.13311091	-0.47957901	0.87920903	-0.052094466	-0.35529135	1.3316518	-0.16982547	-0.41141106	1.337814	0.15245117	-0.46920278	1.3595094	-0.029639935	-0.48732194	1.0174108	-0.23051919	-0.43805814	0.9795355	0.20889562	-0.41079128	0.78824701	-0.24234874	-0.21432082	0.87206022	0.23898824
184	0.732	-0.014368814	-0.0075737034	-0.061968819	-0.75836514	0.039071065	0.078137657	-0.15477171	0.016128865	-0.091701978	-0.84947479	0.14367006	0.1039439	-0.14842118	0.040212817	-0.010317242	-0.80969307	0.14028998	0.024449165	-0.21520063	-0.013068451	-0.043401696	-0.8971236	0.15168376	0.048113868	-0.16475156	0.40199967	-0.13020705	-0.5419955	0.39644918	0.12919088	-0.15673751	0.38342112	-0.008859241	-0.50826023	0.37958523	0.0062807523	-0.27149671	0.77436804	-0.19371207	-0.42034487	0.77551123	0.17136568	-0.24897606	0.87610967	-0.10500222	-0.31522244	0.85839515	0.13159821	-0.47288451	0.87911174	-0.052340849	-0.3488123	1.331259	-0.17086056	-0.40470888	1.3377544	0.15168115	-0.46267284	1.3592141	-0.030568528	-0.48001943	1.0168553	-0.23120573	-0.43335896	0.9794354	0.2073438	-0.40412386	0.78734856	-0.24357173	-0.2102981	0.87098121	0.2393823
185	0.736	-0.014138764	-0.0076410092	-0.061920194	-0.75709898	0.038917398	0.078003543	-0.15423223	0.016466898	-0.091555811	-0.84290419	0.14797233	0.1038152	-0.14796492	0.040431867	-0.010075788	-0.80180767	0.14247043	0.025345513	-0.21479351	-0.012765813	-0.042845279	-0.88888008	0.15777931	0.047337555	-0.15830124	0.40259512	-0.12981609	-0.53161323	0.39532034	0.12954063	-0.15244167	0.38395007	-0.0084153657	-0.49750876	0.37731956	0.0070870518	-0.26489892	0.77565238	-0.19491618	-0.41204805	0.774041	0.17093311	-0.2427021	0.87636936	-0.10610551	-0.30731555	0.85757813	0.12999991	-0.46616393	0.87906238	-0.052615435	-0.34233323	1.3309447	-0.17188033	-0.39791473	1.3377642	0.15091898	-0.45608707	1.3590534	-0.031445652	-0.47271976	1.0164055	-0.23195624	-0.42867039	0.97944868	0.20581389	-0.39726459	0.78651823	-0.24474815	-0.20638304	0.86986307	0.23977955
186	0.74	-0.013947963	-0.0077105386	-0.061894824	-0.7557319	0.038726935	0.077932372	-0.15374514	0.016693682	-0.091481768	-0.8358764	0.15219072	0.10373408	-0.14768162	0.040641905	-0.010011635	-0.79342624	0.144568	0.026303536	-0.214527	-0.012520055	-0.042594012	-0.88018431	0.16396213	0.046891492	-0.15193261	0.40325351	-0.12948501	-0.52090609	0.39415321	0.12993091	-0.14819666	0.38461654	-0.0081072138	-0.48619188	0.37481964	0.0079585622	-0.25835161	0.77692403	-0.19609445	-0.40375747	0.77259839	0.17048293	-0.23650904	0.87677909	-0.10724613	-0.29949515	0.85684104	0.1283251	-0.45942134	0.87907497	-0.052896557	-0.33586562	1.3307089	-0.17287649	-0.39102924	1.3378442	0.15015272	-0.44943416	1.3590217	-0.032262026	-0.46549928	1.0159817	-0.23238139	-0.42399922	0.97958049	0.20431145	-0.39021113	0.78577019	-0.24583664	-0.20266524	0.86870865	0.24019089
187	0.744	-0.013790861	-0.007782287	-0.061873041	-0.75426095	0.038491508	0.07790704	-0.15328701	0.016830071	-0.091474624	-0.82824699	0.15633839	0.10372761	-0.14755869	0.040811685	-0.010103129	-0.78475591	0.14671015	0.027218757	-0.21439768	-0.012339272	-0.042630237	-0.87117084	0.1702093	0.046834521	-0.14568958	0.4039213	-0.1292234	-0.50989486	0.39293632	0.13034494	-0.14394886	0.38536812	-0.0078798983	-0.47434265	0.3721104	0.0088643087	-0.25190857	0.77811	-0.19724446	-0.39551353	0.77117225	0.17004977	-0.23036031	0.87733742	-0.10840831	-0.2917872	0.85618126	0.12659144	-0.45270243	0.87915416	-0.053118264	-0.32940553	1.3305443	-0.17382731	-0.38406168	1.3379903	0.14937801	-0.44272296	1.3591016	-0.033008427	-0.45827221	1.0155067	-0.23249124	-0.41935463	0.97983384	0.20284284	-0.38301818	0.78512061	-0.2468334	-0.19918835	0.86752336	0.24061367
188	0.748	-0.013667826	-0.0078532161	-0.061857696	-0.75263481	0.038263273	0.077912057	-0.15286121	0.01689096	-0.091545647	-0.81996748	0.1603996	0.10378646	-0.14751133	0.040951383	-0.010289697	-0.77593062	0.14892395	0.028033998	-0.21435942	-0.012211433	-0.042872687	-0.86173385	0.17639933	0.046934797	-0.13963579	0.40452738	-0.12904505	-0.49862168	0.39165033	0.13078123	-0.1396229	0.38616059	-0.0076854146	-0.4620184	0.36922536	0.0097971881	-0.24562078	0.77916378	-0.19836292	-0.38735785	0.76975553	0.16965978	-0.22424234	0.8780102	-0.10958328	-0.28421362	0.85559235	0.12482396	-0.44605258	0.8792875	-0.053180341	-0.32294373	1.3304426	-0.17471083	-0.377039	1.3381926	0.14860072	-0.43597719	1.3592646	-0.033682263	-0.45092348	1.0149711	-0.23256208	-0.41475125	0.98021035	0.20141873	-0.37579361	0.78457333	-0.24776553	-0.1958964	0.86631372	0.24102606
189	0.752	-0.013577422	-0.0079200332	-0.061857594	-0.75074703	0.038181288	0.077933237	-0.15246623	0.016885002	-0.091695256	-0.81116115	0.16436849	0.10388705	-0.14744052	0.041081937	-0.010503161	-0.76695079	0.15112109	0.028806618	-0.21436911	-0.012119811	-0.043239172	-0.85171682	0.18241025	0.046924489	-0.13384746	0.40500363	-0.12896742	-0.48711378	0.39028837	0.13127331	-0.13519546	0.38694582	-0.0075393752	-0.44928072	0.36618717	0.010783649	-0.23949945	0.78006454	-0.1994433	-0.37931849	0.76834581	0.16930556	-0.21818484	0.87874584	-0.11076929	-0.27679083	0.85506772	0.12305029	-0.43947895	0.87945334	-0.052958622	-0.31647883	1.3304042	-0.17552339	-0.36999691	1.3384383	0.147828	-0.42922278	1.3594786	-0.034291155	-0.44344468	1.014427	-0.23272887	-0.41020345	0.98070485	0.20004685	-0.36864742	0.78412782	-0.24867484	-0.19270103	0.86508514	0.24140721
190	0.756	-0.013514417	-0.007981038	-0.061873488	-0.7484729	0.038446809	0.077939854	-0.15209517	0.016825723	-0.091901979	-0.80201001	0.16829483	0.10402068	-0.14730476	0.04120402	-0.010706958	-0.75776662	0.15323856	0.029614773	-0.21440239	-0.012051906	-0.043660519	-0.84122365	0.18823586	0.046830432	-0.12838725	0.4053147	-0.12900773	-0.47538888	0.38886228	0.13186802	-0.13071028	0.38766395	-0.0075141406	-0.43618246	0.36300602	0.011857256	-0.23352646	0.78081128	-0.20046545	-0.37140696	0.76693585	0.16896161	-0.21222173	0.87950542	-0.11196012	-0.26953504	0.85460345	0.12129696	-0.43295669	0.87962758	-0.052344725	-0.31000572	1.3304343	-0.17627983	-0.36295714	1.3387147	0.14705313	-0.42248314	1.3597186	-0.034849711	-0.43588318	1.0139568	-0.23293863	-0.40570704	0.98129484	0.19871818	-0.36158411	0.78378295	-0.24956988	-0.18956373	0.86384158	0.24175113
191	0.76	-0.013472765	-0.0080361122	-0.061900213	-0.7457174	0.039235958	0.077885601	-0.15174712	0.016730595	-0.092130521	-0.79262501	0.17223951	0.10419882	-0.14711896	0.04130015	-0.010889763	-0.74836788	0.15532896	0.030451459	-0.21444815	-0.011999562	-0.044081881	-0.83052055	0.19398611	0.046932214	-0.12329883	0.40545826	-0.12918078	-0.4634842	0.3873898	0.13259	-0.1262511	0.38824973	-0.0076999677	-0.42277487	0.35970329	0.013021475	-0.22765924	0.78142221	-0.20139248	-0.36362903	0.7655174	0.16861209	-0.20635206	0.880271	-0.11314105	-0.26245974	0.85419976	0.11958932	-0.42647024	0.87978449	-0.051329096	-0.30349671	1.3305319	-0.17699659	-0.35592808	1.3390125	0.14625771	-0.41577935	1.3599696	-0.03537323	-0.4282378	1.0136234	-0.23310635	-0.40122352	0.98193579	0.19739966	-0.35446569	0.78353014	-0.25039497	-0.18649165	0.86258656	0.24205763
192	0.764	-0.013447542	-0.0080855151	-0.061933451	-0.74244137	0.040595003	0.077734161	-0.15142362	0.016610964	-0.092347742	-0.78303061	0.17619605	0.10444317	-0.14691771	0.041354123	-0.011044761	-0.73876377	0.15749678	0.031252685	-0.21449865	-0.011957393	-0.044464103	-0.819748	0.19979262	0.047475557	-0.11861868	0.40544041	-0.12949492	-0.45145995	0.38589154	0.13342484	-0.12188384	0.38865424	-0.0081473917	-0.40911582	0.35633872	0.01422566	-0.22185083	0.78193718	-0.20220103	-0.35598145	0.76410084	0.16824342	-0.20056119	0.88103172	-0.11429982	-0.25556844	0.85386213	0.11795362	-0.42003777	0.87990543	-0.050033321	-0.29693278	1.3306922	-0.1776819	-0.34893178	1.3393295	0.14543266	-0.40912645	1.360224	-0.035875641	-0.42044377	1.0134262	-0.23320055	-0.39669294	0.98257541	0.19604615	-0.34714877	0.78335663	-0.25108312	-0.18349578	0.86132269	0.2423191
